# xmcd
#
# Track frame offsets:
# 150
# 10594
# 24365
# 38626
# 50077
# 62751
# 74564
# 88094
# 100506
# 112212
# 124493
# 138859
# 152350
# 165322
# 177339
# 192573
# 205470
# 218704
# 233230
# 245776
# 258468
# 271094
# 283030
# 295808
# 306270
# 320194
# 332958
#
# Disc length: 4613 seconds
#
#
# Revision: 0
# Processed by: cddbd v1.5.2PL0 Copyright (c) Steve Scherf et al.
# Submitted via: FreeRIP 2.941 
#
DISCID=9b12031b
DTITLE=Ray Charles - Sinners Prayers 1951-54
DYEAR=2005
DGENRE=Swing
TTITLE0=HeyNow
TTITLE1=Misery In My Heart
TTITLE2=Kissa Me Baby
TTITLE3=Guitar Blues
TTITLE4=The Snow Is Falling
TTITLE5=The Sun's Gonna Shine
TTITLE6=The Midnight Hour
TTITLE7=Jumpin In The Morning
TTITLE8=Roll With My Baby
TTITLE9=Should've Been Me
TTITLE10=Losing Hand
TTITLE11=Someday Baby
TTITLE12=Low Society
TTITLE13=Mess Around
TTITLE14=Sinner's Prayer
TTITLE15=Heartbreaker
TTITLE16=Don't You Know
TTITLE17=Funny But I Still Love
TTITLE18=Mr Charles' Blues
TTITLE19=Feelin' Sad
TTITLE20=I Wonder Who
TTITLE21=Nobody Cares
TTITLE22=I've Got A Woman
TTITLE23=Blackjack
TTITLE24=Come Back Baby
TTITLE25=Greenbacks
TTITLE26=Ray's Blues
EXTD=Compilation CD
EXTT0=
EXTT1=
EXTT2=
EXTT3=
EXTT4=
EXTT5=
EXTT6=
EXTT7=
EXTT8=
EXTT9=
EXTT10=
EXTT11=
EXTT12=
EXTT13=
EXTT14=
EXTT15=
EXTT16=
EXTT17=
EXTT18=
EXTT19=
EXTT20=
EXTT21=
EXTT22=
EXTT23=
EXTT24=
EXTT25=
EXTT26=
PLAYORDER=
